<?xml version="1.0" encoding="UTF-8"?>
<svg id="Layer_2" data-name="Layer 2" xmlns="http://www.w3.org/2000/svg" viewBox="0 0 298.9 73.97">
  <defs>
    <style>
      .cls-1 {
        fill: #5d5d5d;
      }

      .cls-1, .cls-2, .cls-3, .cls-4, .cls-5, .cls-6, .cls-7 {
        stroke-width: 0px;
      }

      .cls-2 {
        fill: #717272;
      }

      .cls-3 {
        fill: #343433;
      }

      .cls-4 {
        fill: #4d4c4d;
      }

      .cls-5 {
        fill: #545554;
      }

      .cls-6 {
        fill: #3e3e3d;
      }

      .cls-7 {
        fill: #fff;
      }
    </style>
  </defs>
  <g id="Layer_1-2" data-name="Layer 1">
    <g>
      <g>
        <path class="cls-7" d="M72.96,34.75h-.43l-12.83-23.36c.29-.43.29-.87.29-1.44,0-1.73-1.44-3.03-3.03-3.03-.87,0-1.73.43-2.16,1.01L29.41,2.74c-.14-1.59-1.44-2.74-3.03-2.74-1.73,0-3.03,1.44-3.03,3.03,0,.58.14,1.01.29,1.44L3.89,32.87c-.29,0-.58-.14-.87-.14-1.73,0-3.03,1.44-3.03,3.03,0,1.73,1.44,3.03,3.03,3.03h.14l10.67,26.39c-.14.43-.29.87-.29,1.3,0,1.73,1.44,3.03,3.03,3.03.87,0,1.73-.43,2.16-1.01l32.01,3.17c.29,1.3,1.59,2.31,3.03,2.31,1.73,0,3.03-1.44,3.03-3.03,0-.72-.29-1.44-.72-2.02l16.15-28.12h.58c1.73,0,3.03-1.44,3.03-3.03.14-1.59-1.15-3.03-2.88-3.03ZM54.5,11.82c.43.43.87.87,1.44,1.01l-4.9,36.62c-.29,0-.58.14-.87.29l-26.67-23.07c0-.29.14-.58.14-.87v-.58l30.86-13.41ZM69.93,38.79l-16.44,11.25c-.14-.14-.29-.14-.43-.29l5.05-36.91h0l12.54,23.07c-.43.58-.72,1.3-.72,2.02-.14.29,0,.58,0,.87ZM20.19,22.78c-1.44.29-2.6,1.44-2.6,3.03v.14l-10.96,6.49L23.65,8.07l-3.46,14.71ZM21.34,28.84c.43-.14.87-.29,1.15-.43l26.39,22.93c-.14.29-.14.72-.14,1.15v.14l-29.56,12.11c-.43-.58-1.15-1.15-1.87-1.3l4.04-34.6ZM49.46,54.5c.43.43,1.01.72,1.59.87l1.44,12.83c-.58.29-1.15.87-1.44,1.44l-31-3.03,29.41-12.11ZM53.21,55.22c1.01-.43,1.73-1.59,1.73-2.74,0-.29,0-.58-.14-.72l15-10.24-15.14,26.24-1.44-12.54ZM53.93,9.8l-31.29,13.7c-.14-.14-.29-.14-.29-.29l4.04-17.01h.14c1.15,0,2.02-.58,2.6-1.44l24.8,5.05h0ZM6.2,35.76v-.58l12.4-7.35c.29.29.58.43.87.58l-4.04,34.6-10.09-24.94c.43-.58.87-1.3.87-2.31Z"/>
        <path class="cls-3" d="M110.74,49.17v-22.06c0-10.67,8.07-14.71,18.6-14.71s18.6,4.04,18.6,14.71v22.06c0,10.67-8.22,14.71-18.6,14.71s-18.6-4.04-18.6-14.71ZM143.32,27.11c0-7.79-5.19-11.25-13.99-11.25s-13.99,3.6-13.99,11.25v22.06c0,7.79,5.19,11.25,13.99,11.25s13.99-3.6,13.99-11.25v-22.06Z"/>
        <path class="cls-3" d="M193.64,60.85l-27.11-40.08v41.09c0,1.01-1.15,1.59-2.31,1.59s-2.31-.43-2.31-1.59V13.99c0-1.15,1.15-1.44,2.31-1.44,1.73,0,2.88,1.73,3.75,2.88l26.67,39.8V13.99c0-1.01,1.15-1.44,2.31-1.44s2.31.43,2.31,1.44v47.87c0,1.01-1.15,1.59-2.31,1.59-1.44,0-2.45-1.44-3.32-2.6Z"/>
        <path class="cls-3" d="M245.55,60.85l-27.11-40.08v41.09c0,1.01-1.15,1.59-2.31,1.59s-2.31-.43-2.31-1.59V13.99c0-1.15,1.15-1.44,2.31-1.44,1.73,0,2.88,1.73,3.75,2.88l26.67,39.8V13.99c0-1.01,1.15-1.44,2.31-1.44s2.31.43,2.31,1.44v47.87c0,1.01-1.15,1.59-2.31,1.59-1.3,0-2.45-1.44-3.32-2.6Z"/>
        <path class="cls-3" d="M279.87,41.24l-13.7,19.9c-.58,1.01-1.44,2.31-2.74,2.31-1.15,0-2.6-.72-2.6-1.73,0-.29.14-.58.43-.87l15.86-22.93-15.57-22.78c-.43-.43-.58-.87-.58-1.3,0-.87,1.15-1.44,2.6-1.44,1.3,0,2.16,1.3,2.88,2.45l13.41,19.75,13.41-19.75c.72-1.01,1.59-2.45,2.88-2.45,1.44,0,2.6.58,2.6,1.44,0,.43-.14.87-.58,1.3l-15.72,22.78,16,22.93c.14.29.43.58.43.87,0,1.01-1.3,1.73-2.6,1.73-1.44,0-2.16-1.44-2.74-2.31l-13.7-19.9Z"/>
      </g>
      <path class="cls-5" d="M58.11,12.83l12.54,23.07c-.43.58-.72,1.3-.72,2.02,0,.29,0,.58.14.87l-16.44,11.25c-.14-.14-.29-.14-.43-.29l4.9-36.91h0"/>
      <path class="cls-6" d="M53.21,55.22c1.01-.43,1.73-1.59,1.73-2.74,0-.29,0-.58-.14-.72l15-10.24-15.14,26.24-1.44-12.54Z"/>
      <path class="cls-4" d="M49.46,54.5c.43.43,1.01.72,1.59.87l1.44,12.83c-.58.29-1.15.87-1.44,1.44l-31-3.03,29.41-12.11Z"/>
      <path class="cls-1" d="M21.34,28.84c.43-.14.87-.29,1.15-.43l26.39,22.93c-.14.29-.14.72-.14,1.15v.14l-29.56,12.11c-.43-.58-1.15-1.15-1.87-1.3l4.04-34.6Z"/>
      <path class="cls-4" d="M6.2,35.76v-.58l12.4-7.35c.29.29.58.43.87.58l-4.04,34.6-10.09-24.94c.43-.58.87-1.3.87-2.31Z"/>
      <path class="cls-6" d="M20.19,22.78c-1.44.29-2.6,1.44-2.6,3.03v.14l-10.96,6.49L23.65,8.07l-3.46,14.71Z"/>
      <path class="cls-5" d="M53.93,9.8l-31.29,13.7c-.14-.14-.29-.14-.29-.29l4.04-17.01h.14c1.15,0,2.02-.58,2.6-1.44l24.8,5.05h0Z"/>
      <path class="cls-2" d="M54.5,11.82c.43.43.87.87,1.44,1.01l-4.9,36.62c-.29,0-.58.14-.87.29l-26.67-23.07c0-.29.14-.58.14-.87v-.58l30.86-13.41Z"/>
    </g>
  </g>
</svg>